# xmcd
#
# Track frame offsets: 
#        150
#        11622
#        26052
#        41492
#        61460
#        75970
#        94305
#        106442
#        121550
#
# Disc length: 1906 seconds
#
# Revision: 3
# Processed by: cddbd v1.5.2PL0 Copyright (c) Steve Scherf et al.
# Submitted via: ExactAudioCopy v0.99pb4
#
DISCID=64077009
DTITLE=Otis Spann - The Blues Is Where It's At
DYEAR=1994
DGENRE=Blues
TTITLE0=Popcorn Man
TTITLE1=Brand New House
TTITLE2=Nobody Knows Chicago Like I Do (Party Blues)
TTITLE3=Steel Mill Blues
TTITLE4=Down On Sarah Street
TTITLE5=T'Aint Nobody's Biziness If I Do
TTITLE6=Chicago Blues
TTITLE7=My Home Is On The Delta
TTITLE8=Spann Blues
EXTD=
EXTT0=
EXTT1=
EXTT2=
EXTT3=
EXTT4=
EXTT5=
EXTT6=
EXTT7=
EXTT8=
PLAYORDER=
